# xmcd
#
# Track frame offsets:
# 150
# 18018
# 39961
# 66450
# 84632
# 103597
# 122876
# 140117
# 156888
# 177421
# 191057
# 214568
# 236668
# 256887
# 283689
# 304065
# 321776
#
# Disc length: 4624 seconds
#
#
# Revision: 0
# Processed by: cddbd v1.5.1PL2 Copyright (c) Steve Scherf et al.
# Submitted via: CDLP Version 5
#
DISCID=f4120e11
DTITLE=Various Artist - Dorama's Theme 1983〜1998
DYEAR=1900
DGENRE=Misc
TTITLE0=ホワット・ア・フィーリング -What a feeling-♪麻倉未稀
TTITLE1=ヒーロー -Holding Out For a Hero-♪麻倉未稀
TTITLE2=今夜はANGEL♪椎名恵
TTITLE3=I Don't Know♪BaBe
TTITLE4=ろくなもんじゃねぇ♪長渕剛
TTITLE5=抱きしめてTONIGHT♪田原俊彦
TTITLE6=TRAIN-TRAIN♪THE BLUE HEARTS
TTITLE7=ひとりぼっちに帰らない♪仲村知夏
TTITLE8=Blue In Your Eyes♪大沢逸美
TTITLE9=涙くんさよなら♪川越美和
TTITLE10=悲しみは雪のように [Single Version]♪浜田省吾
TTITLE11=もう 戻らない♪木根尚登
TTITLE12=情熱♪井出奏彰
TTITLE13=スタートライン♪海援隊
TTITLE14=空も飛べるはず♪スピッツ
TTITLE15=ナチュラル♪NOKKO
TTITLE16=embrace♪TRF
EXTD=
EXTT0=
EXTT1=
EXTT2=
EXTT3=
EXTT4=
EXTT5=
EXTT6=
EXTT7=
EXTT8=
EXTT9=
EXTT10=
EXTT11=
EXTT12=
EXTT13=
EXTT14=
EXTT15=
EXTT16=
PLAYORDER=
